# xmcd CD database file
#
# Track frame offsets:
#	150
#	22231
#	30769
#	48754
#	64466
#	80994
#	104310
#	126891
#	144089
#	168108
#	179676
#	196426
#	213267
#	232343
#	250369
#	266008
#	284439
#	301494
#
# Disc length: 4433 seconds
#
# Revision: 2
# Processed by: cddbd v1.5.2PL0 Copyright (c) Steve Scherf et al.
# Submitted via: CDex 1.79
#
DISCID=0e114f12
DTITLE=Cody McFadyen - Die Stille vor dem Tod
DYEAR=1900
DGENRE=Blues
TTITLE0=101
TTITLE1=102
TTITLE2=103
TTITLE3=104
TTITLE4=105
TTITLE5=106
TTITLE6=107
TTITLE7=108
TTITLE8=109
TTITLE9=110
TTITLE10=111
TTITLE11=112
TTITLE12=113
TTITLE13=114
TTITLE14=115
TTITLE15=116
TTITLE16=117
TTITLE17=118
EXTD=
EXTT0=
EXTT1=
EXTT2=
EXTT3=
EXTT4=
EXTT5=
EXTT6=
EXTT7=
EXTT8=
EXTT9=
EXTT10=
EXTT11=
EXTT12=
EXTT13=
EXTT14=
EXTT15=
EXTT16=
EXTT17=
PLAYORDER=
